{
	"asset":{
		"generator":"Khronos glTF Blender I/O v4.1.62",
		"version":"2.0"
	},
	"scene":0,
	"scenes":[
		{
			"name":"Scene",
			"nodes":[
				0,
				1,
				2,
				3,
				4,
				5,
				6,
				7,
				8,
				9,
				10
			]
		}
	],
	"nodes":[
		{
			"mesh":0,
			"name":"Ground",
			"scale":[
				129.05189514160156,
				129.05189514160156,
				129.05189514160156
			]
		},
		{
			"mesh":1,
			"name":"Cube",
			"scale":[
				7.629843235015869,
				7.629843235015869,
				7.629843235015869
			],
			"translation":[
				0,
				7.118919372558594,
				90.83401489257812
			]
		},
		{
			"mesh":2,
			"name":"teleport",
			"rotation":[
				0,
				0,
				-1,
				0
			],
			"scale":[
				-3.0234696865081787,
				-4.45626163482666,
				-0.6872023344039917
			],
			"translation":[
				0,
				4.434647560119629,
				83.1106948852539
			]
		},
		{
			"mesh":3,
			"name":"Cube.001",
			"scale":[
				12.1209135055542,
				0.867520272731781,
				7.629843235015869
			],
			"translation":[
				0.29475340247154236,
				15.673837661743164,
				90.71503448486328
			]
		},
		{
			"mesh":4,
			"name":"Sphere",
			"scale":[
				-17.005205154418945,
				-17.005205154418945,
				-17.005205154418945
			],
			"translation":[
				-46.31804656982422,
				87.62003326416016,
				29.190582275390625
			]
		},
		{
			"mesh":5,
			"name":"Cube.002",
			"rotation":[
				0,
				-0.9396926164627075,
				0,
				0.3420201539993286
			],
			"scale":[
				7.629843235015869,
				7.629843235015869,
				7.629843235015869
			],
			"translation":[
				-52.83226776123047,
				7.118919372558594,
				-105.65776824951172
			]
		},
		{
			"mesh":6,
			"name":"teleport.001",
			"rotation":[
				0.9396926164627075,
				0,
				-0.3420201539993286,
				0
			],
			"scale":[
				-3.0234696865081787,
				-4.45626163482666,
				-0.6872023344039917
			],
			"translation":[
				-47.86781311035156,
				4.434647560119629,
				-99.74136352539062
			]
		},
		{
			"mesh":7,
			"name":"Cube.003",
			"rotation":[
				0,
				-0.9396926164627075,
				0,
				0.3420201539993286
			],
			"scale":[
				12.1209135055542,
				0.867520272731781,
				7.629843235015869
			],
			"translation":[
				-52.98158264160156,
				15.673837661743164,
				-105.37715911865234
			]
		},
		{
			"mesh":8,
			"name":"Cube.004",
			"rotation":[
				0,
				0.9762960076332092,
				0,
				0.21643969416618347
			],
			"scale":[
				7.629843711853027,
				7.629843235015869,
				7.629843711853027
			],
			"translation":[
				38.60702133178711,
				7.118919372558594,
				-105.23318481445312
			]
		},
		{
			"mesh":9,
			"name":"teleport.002",
			"rotation":[
				0.9762960076332092,
				0,
				0.21643973886966705,
				0
			],
			"scale":[
				-3.0234696865081787,
				-4.45626163482666,
				-0.6872022747993469
			],
			"translation":[
				35.3430061340332,
				4.434647560119629,
				-98.23348236083984
			]
		},
		{
			"mesh":10,
			"name":"Cube.005",
			"rotation":[
				0,
				0.9762960076332092,
				0,
				0.21643969416618347
			],
			"scale":[
				12.1209135055542,
				0.867520272731781,
				7.629843711853027
			],
			"translation":[
				38.28960037231445,
				15.673837661743164,
				-105.24992370605469
			]
		}
	],
	"meshes":[
		{
			"name":"Plane",
			"primitives":[
				{
					"attributes":{
						"POSITION":0,
						"NORMAL":1,
						"TEXCOORD_0":2
					},
					"indices":3
				}
			]
		},
		{
			"name":"Cube.007",
			"primitives":[
				{
					"attributes":{
						"POSITION":4,
						"NORMAL":5,
						"TEXCOORD_0":6
					},
					"indices":7
				}
			]
		},
		{
			"name":"Cube.008",
			"primitives":[
				{
					"attributes":{
						"POSITION":8,
						"NORMAL":9,
						"TEXCOORD_0":10
					},
					"indices":7
				}
			]
		},
		{
			"name":"Cube.009",
			"primitives":[
				{
					"attributes":{
						"POSITION":11,
						"NORMAL":12,
						"TEXCOORD_0":13
					},
					"indices":14
				}
			]
		},
		{
			"name":"Sphere.004",
			"primitives":[
				{
					"attributes":{
						"POSITION":15,
						"NORMAL":16,
						"TEXCOORD_0":17
					},
					"indices":18
				}
			]
		},
		{
			"name":"Cube.001",
			"primitives":[
				{
					"attributes":{
						"POSITION":19,
						"NORMAL":20,
						"TEXCOORD_0":21
					},
					"indices":7
				}
			]
		},
		{
			"name":"Cube.002",
			"primitives":[
				{
					"attributes":{
						"POSITION":22,
						"NORMAL":23,
						"TEXCOORD_0":24
					},
					"indices":7
				}
			]
		},
		{
			"name":"Cube.003",
			"primitives":[
				{
					"attributes":{
						"POSITION":25,
						"NORMAL":26,
						"TEXCOORD_0":27
					},
					"indices":14
				}
			]
		},
		{
			"name":"Cube.004",
			"primitives":[
				{
					"attributes":{
						"POSITION":28,
						"NORMAL":29,
						"TEXCOORD_0":30
					},
					"indices":7
				}
			]
		},
		{
			"name":"Cube.005",
			"primitives":[
				{
					"attributes":{
						"POSITION":31,
						"NORMAL":32,
						"TEXCOORD_0":33
					},
					"indices":7
				}
			]
		},
		{
			"name":"Cube.006",
			"primitives":[
				{
					"attributes":{
						"POSITION":34,
						"NORMAL":35,
						"TEXCOORD_0":36
					},
					"indices":14
				}
			]
		}
	],
	"accessors":[
		{
			"bufferView":0,
			"componentType":5126,
			"count":4,
			"max":[
				1,
				0,
				1
			],
			"min":[
				-1,
				0,
				-1
			],
			"type":"VEC3"
		},
		{
			"bufferView":1,
			"componentType":5126,
			"count":4,
			"type":"VEC3"
		},
		{
			"bufferView":2,
			"componentType":5126,
			"count":4,
			"type":"VEC2"
		},
		{
			"bufferView":3,
			"componentType":5123,
			"count":6,
			"type":"SCALAR"
		},
		{
			"bufferView":4,
			"componentType":5126,
			"count":24,
			"max":[
				1,
				1,
				1
			],
			"min":[
				-1,
				-1,
				-1
			],
			"type":"VEC3"
		},
		{
			"bufferView":5,
			"componentType":5126,
			"count":24,
			"type":"VEC3"
		},
		{
			"bufferView":6,
			"componentType":5126,
			"count":24,
			"type":"VEC2"
		},
		{
			"bufferView":7,
			"componentType":5123,
			"count":36,
			"type":"SCALAR"
		},
		{
			"bufferView":8,
			"componentType":5126,
			"count":24,
			"max":[
				1,
				1,
				1
			],
			"min":[
				-1,
				-1,
				-1
			],
			"type":"VEC3"
		},
		{
			"bufferView":9,
			"componentType":5126,
			"count":24,
			"type":"VEC3"
		},
		{
			"bufferView":10,
			"componentType":5126,
			"count":24,
			"type":"VEC2"
		},
		{
			"bufferView":11,
			"componentType":5126,
			"count":106,
			"max":[
				1.1165504455566406,
				10.415575981140137,
				1.2089622020721436
			],
			"min":[
				-1.1165504455566406,
				-1,
				-1.22475266456604
			],
			"type":"VEC3"
		},
		{
			"bufferView":12,
			"componentType":5126,
			"count":106,
			"type":"VEC3"
		},
		{
			"bufferView":13,
			"componentType":5126,
			"count":106,
			"type":"VEC2"
		},
		{
			"bufferView":14,
			"componentType":5123,
			"count":240,
			"type":"SCALAR"
		},
		{
			"bufferView":15,
			"componentType":5126,
			"count":559,
			"max":[
				0.9999997019767761,
				1,
				0.9999993443489075
			],
			"min":[
				-0.9999990463256836,
				-1,
				-1
			],
			"type":"VEC3"
		},
		{
			"bufferView":16,
			"componentType":5126,
			"count":559,
			"type":"VEC3"
		},
		{
			"bufferView":17,
			"componentType":5126,
			"count":559,
			"type":"VEC2"
		},
		{
			"bufferView":18,
			"componentType":5123,
			"count":2880,
			"type":"SCALAR"
		},
		{
			"bufferView":19,
			"componentType":5126,
			"count":24,
			"max":[
				1,
				1,
				1
			],
			"min":[
				-1,
				-1,
				-1
			],
			"type":"VEC3"
		},
		{
			"bufferView":20,
			"componentType":5126,
			"count":24,
			"type":"VEC3"
		},
		{
			"bufferView":21,
			"componentType":5126,
			"count":24,
			"type":"VEC2"
		},
		{
			"bufferView":22,
			"componentType":5126,
			"count":24,
			"max":[
				1,
				1,
				1
			],
			"min":[
				-1,
				-1,
				-1
			],
			"type":"VEC3"
		},
		{
			"bufferView":23,
			"componentType":5126,
			"count":24,
			"type":"VEC3"
		},
		{
			"bufferView":24,
			"componentType":5126,
			"count":24,
			"type":"VEC2"
		},
		{
			"bufferView":25,
			"componentType":5126,
			"count":106,
			"max":[
				1.1165504455566406,
				10.415575981140137,
				1.2089622020721436
			],
			"min":[
				-1.1165504455566406,
				-1,
				-1.22475266456604
			],
			"type":"VEC3"
		},
		{
			"bufferView":26,
			"componentType":5126,
			"count":106,
			"type":"VEC3"
		},
		{
			"bufferView":27,
			"componentType":5126,
			"count":106,
			"type":"VEC2"
		},
		{
			"bufferView":28,
			"componentType":5126,
			"count":24,
			"max":[
				1,
				1,
				1
			],
			"min":[
				-1,
				-1,
				-1
			],
			"type":"VEC3"
		},
		{
			"bufferView":29,
			"componentType":5126,
			"count":24,
			"type":"VEC3"
		},
		{
			"bufferView":30,
			"componentType":5126,
			"count":24,
			"type":"VEC2"
		},
		{
			"bufferView":31,
			"componentType":5126,
			"count":24,
			"max":[
				1,
				1,
				1
			],
			"min":[
				-1,
				-1,
				-1
			],
			"type":"VEC3"
		},
		{
			"bufferView":32,
			"componentType":5126,
			"count":24,
			"type":"VEC3"
		},
		{
			"bufferView":33,
			"componentType":5126,
			"count":24,
			"type":"VEC2"
		},
		{
			"bufferView":34,
			"componentType":5126,
			"count":106,
			"max":[
				1.1165504455566406,
				10.415575981140137,
				1.2089622020721436
			],
			"min":[
				-1.1165504455566406,
				-1,
				-1.22475266456604
			],
			"type":"VEC3"
		},
		{
			"bufferView":35,
			"componentType":5126,
			"count":106,
			"type":"VEC3"
		},
		{
			"bufferView":36,
			"componentType":5126,
			"count":106,
			"type":"VEC2"
		}
	],
	"bufferViews":[
		{
			"buffer":0,
			"byteLength":48,
			"byteOffset":0,
			"target":34962
		},
		{
			"buffer":0,
			"byteLength":48,
			"byteOffset":48,
			"target":34962
		},
		{
			"buffer":0,
			"byteLength":32,
			"byteOffset":96,
			"target":34962
		},
		{
			"buffer":0,
			"byteLength":12,
			"byteOffset":128,
			"target":34963
		},
		{
			"buffer":0,
			"byteLength":288,
			"byteOffset":140,
			"target":34962
		},
		{
			"buffer":0,
			"byteLength":288,
			"byteOffset":428,
			"target":34962
		},
		{
			"buffer":0,
			"byteLength":192,
			"byteOffset":716,
			"target":34962
		},
		{
			"buffer":0,
			"byteLength":72,
			"byteOffset":908,
			"target":34963
		},
		{
			"buffer":0,
			"byteLength":288,
			"byteOffset":980,
			"target":34962
		},
		{
			"buffer":0,
			"byteLength":288,
			"byteOffset":1268,
			"target":34962
		},
		{
			"buffer":0,
			"byteLength":192,
			"byteOffset":1556,
			"target":34962
		},
		{
			"buffer":0,
			"byteLength":1272,
			"byteOffset":1748,
			"target":34962
		},
		{
			"buffer":0,
			"byteLength":1272,
			"byteOffset":3020,
			"target":34962
		},
		{
			"buffer":0,
			"byteLength":848,
			"byteOffset":4292,
			"target":34962
		},
		{
			"buffer":0,
			"byteLength":480,
			"byteOffset":5140,
			"target":34963
		},
		{
			"buffer":0,
			"byteLength":6708,
			"byteOffset":5620,
			"target":34962
		},
		{
			"buffer":0,
			"byteLength":6708,
			"byteOffset":12328,
			"target":34962
		},
		{
			"buffer":0,
			"byteLength":4472,
			"byteOffset":19036,
			"target":34962
		},
		{
			"buffer":0,
			"byteLength":5760,
			"byteOffset":23508,
			"target":34963
		},
		{
			"buffer":0,
			"byteLength":288,
			"byteOffset":29268,
			"target":34962
		},
		{
			"buffer":0,
			"byteLength":288,
			"byteOffset":29556,
			"target":34962
		},
		{
			"buffer":0,
			"byteLength":192,
			"byteOffset":29844,
			"target":34962
		},
		{
			"buffer":0,
			"byteLength":288,
			"byteOffset":30036,
			"target":34962
		},
		{
			"buffer":0,
			"byteLength":288,
			"byteOffset":30324,
			"target":34962
		},
		{
			"buffer":0,
			"byteLength":192,
			"byteOffset":30612,
			"target":34962
		},
		{
			"buffer":0,
			"byteLength":1272,
			"byteOffset":30804,
			"target":34962
		},
		{
			"buffer":0,
			"byteLength":1272,
			"byteOffset":32076,
			"target":34962
		},
		{
			"buffer":0,
			"byteLength":848,
			"byteOffset":33348,
			"target":34962
		},
		{
			"buffer":0,
			"byteLength":288,
			"byteOffset":34196,
			"target":34962
		},
		{
			"buffer":0,
			"byteLength":288,
			"byteOffset":34484,
			"target":34962
		},
		{
			"buffer":0,
			"byteLength":192,
			"byteOffset":34772,
			"target":34962
		},
		{
			"buffer":0,
			"byteLength":288,
			"byteOffset":34964,
			"target":34962
		},
		{
			"buffer":0,
			"byteLength":288,
			"byteOffset":35252,
			"target":34962
		},
		{
			"buffer":0,
			"byteLength":192,
			"byteOffset":35540,
			"target":34962
		},
		{
			"buffer":0,
			"byteLength":1272,
			"byteOffset":35732,
			"target":34962
		},
		{
			"buffer":0,
			"byteLength":1272,
			"byteOffset":37004,
			"target":34962
		},
		{
			"buffer":0,
			"byteLength":848,
			"byteOffset":38276,
			"target":34962
		}
	],
	"buffers":[
		{
			"byteLength":39124,
			"uri":"blender_teleport_test.bin"
		}
	]
}
